<svg xmlns="http://www.w3.org/2000/svg" width="980" height="980" viewBox="0 0 980 980">
<g>
<path d="M 504.30 841.25 C503.50,842.76 502.66,844.00 502.43,844.00 C501.05,844.00 504.53,579.12 505.97,574.10 C506.60,571.92 506.59,570.10 505.94,568.89 C504.88,566.90 505.67,562.00 507.06,562.00 C507.52,562.00 508.07,554.91 508.28,546.25 C508.48,537.59 508.88,529.83 509.17,529.00 C509.45,528.17 510.03,526.26 510.45,524.75 C510.87,523.24 511.68,522.00 512.24,522.00 C514.15,522.00 517.08,517.62 516.89,515.05 C516.78,513.65 516.77,510.84 516.85,508.81 C516.99,505.43 517.26,505.10 520.23,504.81 C522.84,504.56 523.63,503.92 524.35,501.50 C525.91,496.20 526.49,495.64 530.45,495.57 C532.80,495.53 534.56,494.92 535.01,494.00 C537.42,489.11 540.34,480.96 540.88,477.60 C541.36,474.56 542.00,473.62 543.75,473.35 C545.05,473.16 546.02,473.54 546.04,474.26 C546.06,474.94 546.76,473.93 547.59,472.01 C548.43,470.09 548.90,467.74 548.66,466.79 C547.97,464.17 550.38,462.79 554.38,463.54 C557.66,464.16 557.96,464.00 558.56,461.35 C561.24,449.66 561.68,448.49 563.56,448.14 C566.14,447.67 568.00,446.08 568.00,444.36 C568.00,442.70 572.85,435.03 575.00,433.28 C575.82,432.61 577.69,432.05 579.14,432.03 C581.39,432.00 582.91,430.58 583.43,428.00 C583.96,425.38 589.68,424.21 610.50,422.49 C614.35,422.17 620.00,421.27 623.05,420.48 C626.09,419.69 633.47,418.82 639.43,418.53 C645.39,418.24 651.89,417.56 653.88,417.03 C658.58,415.77 728.84,409.51 729.62,410.29 C730.12,410.79 715.53,439.93 708.49,452.50 C706.21,456.58 699.96,468.49 687.00,493.50 C683.01,501.20 678.50,509.75 676.97,512.50 C675.45,515.25 669.03,527.43 662.72,539.56 C656.41,551.70 649.67,564.53 647.76,568.06 C645.84,571.60 640.78,581.25 636.50,589.50 C627.25,607.37 619.31,622.56 613.50,633.50 C611.17,637.90 606.67,646.45 603.50,652.50 C600.33,658.55 595.61,667.55 593.01,672.50 C590.40,677.45 585.22,687.35 581.49,694.50 C573.42,709.97 567.12,721.95 562.02,731.50 C559.97,735.35 554.56,745.70 550.01,754.50 C545.46,763.30 541.39,770.95 540.98,771.50 C540.57,772.05 536.63,779.47 532.23,788.00 C527.84,796.53 520.08,811.38 514.99,821.00 C509.90,830.62 505.09,839.74 504.30,841.25 ZM 607.73 732.40 C594.10,749.50 582.53,763.65 582.01,763.82 C581.16,764.11 591.77,742.63 597.48,732.50 C598.72,730.30 602.55,723.10 606.00,716.50 C617.23,695.03 633.11,664.84 641.51,649.00 C651.61,629.97 658.40,617.01 668.50,597.50 C672.77,589.25 680.20,575.08 685.00,566.00 C689.80,556.92 696.76,543.68 700.46,536.57 C704.16,529.46 707.76,522.71 708.46,521.57 C709.16,520.43 713.85,511.53 718.87,501.78 C723.90,492.04 729.07,482.14 730.36,479.78 C731.66,477.43 736.25,468.75 740.56,460.50 C744.87,452.25 753.23,436.27 759.13,425.00 L 769.86 404.50 L 789.68 399.69 C800.58,397.04 826.80,390.61 847.95,385.39 C869.10,380.18 887.22,376.05 888.22,376.21 C889.72,376.45 889.21,377.52 885.20,382.50 C876.76,392.99 853.51,422.31 849.43,427.61 C844.61,433.86 833.81,447.32 833.05,448.00 C832.75,448.27 830.26,451.42 827.53,455.00 C824.80,458.58 814.87,471.17 805.47,483.00 C781.21,513.52 758.87,541.69 741.55,563.59 C724.23,585.51 701.03,614.74 686.00,633.59 C680.22,640.84 672.80,650.26 669.50,654.53 C666.20,658.80 663.03,662.79 662.46,663.40 C661.07,664.88 650.30,678.42 640.50,691.02 C636.10,696.67 621.35,715.29 607.73,732.40 ZM 469.37 832.25 C468.84,842.72 468.12,845.64 466.66,843.25 C463.58,838.23 413.38,737.99 412.51,735.12 C412.11,733.80 410.25,730.13 408.39,726.95 C406.53,723.77 404.99,720.56 404.99,719.83 C404.98,719.10 403.18,714.99 400.99,710.69 C398.79,706.40 397.00,702.32 397.00,701.64 C397.00,700.95 395.88,698.86 394.50,697.00 C393.12,695.14 392.00,692.85 392.00,691.93 C392.00,691.00 391.33,689.68 390.50,689.00 C387.37,686.40 389.70,673.82 393.58,672.33 C394.33,672.04 395.67,672.52 396.55,673.40 C397.42,674.28 398.51,675.00 398.96,675.00 C400.08,675.00 401.00,672.40 401.02,669.17 C401.03,665.82 401.98,664.33 404.39,663.87 C405.43,663.66 406.62,662.83 407.03,662.00 C407.43,661.17 408.34,659.27 409.04,657.78 C411.01,653.55 415.29,648.91 417.50,648.60 C419.29,648.34 420.11,646.87 421.61,641.25 C421.79,640.56 423.25,640.00 424.86,640.00 C427.94,640.00 429.00,638.58 429.00,634.44 C429.00,632.82 429.92,631.57 431.88,630.56 C433.75,629.59 434.98,628.01 435.38,626.04 C435.72,624.37 436.27,621.67 436.61,620.06 C437.10,617.65 437.78,617.06 440.34,616.81 C442.83,616.56 443.64,615.90 444.34,613.50 C444.82,611.85 445.82,609.15 446.55,607.50 C447.28,605.85 448.03,603.60 448.20,602.50 C448.40,601.24 449.45,600.37 451.01,600.15 C454.18,599.71 456.00,598.22 456.00,596.06 C456.00,595.12 457.12,593.38 458.50,592.19 C459.88,590.99 461.00,589.17 461.00,588.13 C461.00,585.30 463.32,583.81 466.12,584.85 C468.41,585.70 468.50,586.12 468.55,596.12 C468.58,601.83 469.17,617.53 469.87,631.00 C471.13,655.47 470.76,804.76 469.37,832.25 ZM 800.37 364.06 C789.30,366.78 779.51,369.00 778.62,369.00 C777.38,369.00 777.00,368.00 777.00,364.75 C777.01,353.74 784.70,221.34 785.63,216.28 C786.66,210.66 788.34,210.41 792.81,215.21 C795.01,217.57 799.55,222.43 802.89,226.00 C806.24,229.57 808.98,232.82 808.99,233.22 C808.99,233.61 813.16,238.12 818.25,243.23 C823.34,248.34 830.65,256.11 834.50,260.51 C838.35,264.90 841.73,268.73 842.01,269.00 C842.29,269.27 845.66,273.10 849.51,277.50 C853.35,281.90 856.75,285.73 857.05,286.00 C857.35,286.27 862.50,292.12 868.49,299.00 C874.49,305.88 881.44,313.75 883.95,316.51 C890.35,323.56 899.24,333.92 900.88,336.25 C902.70,338.83 902.06,339.18 890.66,341.95 C881.31,344.22 836.53,355.18 800.37,364.06 ZM 620.01 383.25 C620.00,383.66 619.66,383.93 619.25,383.85 C618.84,383.77 616.47,383.42 614.00,383.09 C609.72,382.51 609.65,382.45 612.50,381.81 C614.27,381.41 615.91,380.19 616.50,378.82 C617.05,377.55 618.40,376.35 619.50,376.15 C622.47,375.61 624.00,374.03 624.00,371.49 C624.00,370.09 624.74,369.04 625.95,368.72 C627.10,368.42 628.16,367.02 628.51,365.36 C628.85,363.78 629.62,361.60 630.23,360.50 C630.84,359.40 631.62,357.15 631.96,355.50 C632.44,353.15 633.22,352.39 635.54,352.00 C641.38,351.02 642.79,349.12 644.67,339.75 C644.98,338.24 645.63,336.94 646.11,336.88 C646.60,336.81 647.45,336.64 648.00,336.50 C648.55,336.36 649.45,336.19 650.00,336.12 C650.55,336.06 651.00,334.73 651.00,333.17 C651.00,331.45 651.98,329.43 653.50,328.00 C654.88,326.71 656.00,324.86 656.00,323.88 C656.00,322.91 656.95,321.45 658.11,320.64 C659.27,319.82 660.52,317.66 660.90,315.83 C661.46,313.06 662.07,312.45 664.54,312.21 C666.17,312.05 668.17,311.64 669.00,311.30 C669.83,310.96 670.90,310.77 671.38,310.89 C671.87,311.00 671.99,309.72 671.66,308.04 C670.38,301.67 675.11,305.06 687.48,319.39 C689.67,321.92 692.04,324.00 692.73,324.00 C693.43,324.00 694.00,324.43 694.00,324.96 C694.00,325.49 696.22,328.08 698.93,330.71 C701.64,333.34 704.32,335.95 704.87,336.50 C708.50,340.10 733.99,370.13 736.79,374.11 C737.91,375.71 737.79,376.00 735.79,376.39 C730.60,377.42 695.68,380.34 685.00,380.65 C678.67,380.83 667.88,381.32 661.00,381.74 C654.12,382.16 642.09,382.50 634.26,382.50 C626.42,382.50 620.01,382.84 620.01,383.25 ZM 746.39 327.41 C745.38,330.06 742.99,330.01 740.72,327.29 C739.50,325.83 736.17,322.05 733.32,318.90 C730.47,315.75 727.47,311.89 726.66,310.33 C725.85,308.78 724.02,306.41 722.60,305.08 C721.17,303.74 720.00,302.16 720.00,301.55 C720.00,300.94 718.76,299.32 717.25,297.94 C713.05,294.10 710.00,289.78 710.00,287.64 C710.00,286.58 708.04,283.61 705.64,281.04 C700.97,276.05 698.36,272.00 699.83,272.00 C700.32,272.00 700.51,270.88 700.25,269.51 C699.98,268.14 700.08,264.95 700.46,262.41 C701.04,258.56 701.46,257.89 703.02,258.29 C705.42,258.92 708.05,256.02 708.90,251.79 C709.53,248.70 709.87,248.47 714.50,248.00 C719.20,247.52 719.46,247.34 720.14,244.00 C720.53,242.07 720.60,239.26 720.30,237.75 C719.67,234.61 721.38,232.00 724.08,232.00 C725.08,232.00 727.08,231.47 728.51,230.81 C730.85,229.75 731.05,229.24 730.47,225.81 C730.09,223.57 730.22,222.00 730.80,222.00 C731.33,222.00 732.00,221.10 732.29,220.00 C732.60,218.83 733.65,218.00 734.85,218.00 C737.18,218.00 740.00,214.49 740.00,211.61 C740.00,208.88 742.76,206.12 744.93,206.69 C746.30,207.05 746.76,208.19 746.82,211.33 C747.27,234.75 747.63,239.84 748.90,241.39 C749.94,242.64 750.11,244.71 749.60,249.77 C748.36,261.92 748.08,268.17 747.51,297.24 C747.20,313.05 746.70,326.63 746.39,327.41 ZM 231.17 336.35 C230.17,337.26 229.15,337.96 228.92,337.92 C226.78,337.52 226.00,336.33 226.00,333.44 C226.00,331.57 225.55,326.99 225.01,323.27 C224.47,319.55 223.32,305.70 222.46,292.50 C221.61,279.30 220.47,262.44 219.94,255.03 C218.39,233.59 217.02,209.91 217.01,204.67 L 217.00 199.84 L 220.25 200.54 C225.29,201.61 227.07,202.89 223.39,202.79 C218.27,202.65 218.05,203.17 218.57,214.28 C219.24,228.60 220.90,253.30 222.14,267.50 C222.72,274.10 223.79,288.73 224.52,300.00 C225.90,321.29 227.73,333.08 229.76,333.75 C230.41,333.97 231.77,332.78 232.79,331.11 C233.80,329.44 236.36,326.70 238.47,325.02 C240.58,323.35 243.34,320.57 244.61,318.85 C245.88,317.14 247.72,314.93 248.71,313.96 C253.05,309.67 271.01,290.05 277.14,282.91 C282.13,277.09 288.39,270.12 290.06,268.50 C290.63,267.95 291.86,266.69 292.80,265.71 C293.73,264.72 296.98,261.34 300.00,258.20 C303.02,255.05 306.41,251.32 307.52,249.90 C308.63,248.48 310.65,246.73 312.02,246.01 C314.38,244.76 309.50,250.69 302.08,258.07 C300.66,259.48 297.70,262.63 295.50,265.07 C293.30,267.51 288.80,272.47 285.50,276.09 C282.20,279.70 276.35,286.19 272.50,290.49 C262.54,301.63 248.75,316.30 240.27,324.77 C236.27,328.76 233.00,332.63 233.00,333.36 C233.00,334.09 232.18,335.43 231.17,336.35 ZM 192.56 358.30 C192.00,358.86 191.68,359.27 191.27,359.51 C190.26,360.09 188.66,359.64 181.68,357.66 C180.86,357.43 179.97,357.18 179.00,356.91 C173.23,355.29 164.23,352.82 159.00,351.43 C143.35,347.25 138.82,345.84 139.37,345.30 C140.00,344.66 148.44,346.51 156.63,349.08 C160.00,350.14 163.51,351.00 164.42,351.00 C165.33,351.00 168.88,351.84 172.29,352.87 C181.73,355.73 189.31,356.94 190.69,355.82 C191.84,354.89 191.73,343.22 190.43,328.00 C190.17,324.98 189.76,315.52 189.52,307.00 C188.91,285.52 190.56,293.90 191.98,319.50 C192.58,330.50 193.35,343.35 193.67,348.05 C194.17,355.28 193.99,356.86 192.56,358.30 ZM 389.00 189.88 C380.01,190.74 364.11,190.78 362.10,189.95 C360.77,189.40 356.50,189.05 352.60,189.18 C346.17,189.38 338.50,188.83 309.00,186.06 C296.29,184.87 275.10,181.45 272.00,180.10 C269.86,179.16 270.21,179.06 274.50,179.40 C277.25,179.61 283.77,180.53 289.00,181.44 C294.23,182.36 302.55,183.51 307.50,184.00 C323.76,185.62 350.41,187.78 355.00,187.85 C363.66,187.98 391.48,189.64 389.00,189.88 ZM 207.36 415.25 C208.57,420.17 207.35,418.18 203.46,408.91 C199.69,399.91 199.60,399.80 194.20,397.41 C191.20,396.08 187.88,395.00 186.83,395.00 C185.77,395.00 183.69,394.37 182.20,393.61 C180.72,392.85 177.25,391.92 174.50,391.55 C171.75,391.19 168.01,390.01 166.19,388.94 C164.37,387.87 161.54,387.00 159.89,387.00 C158.25,387.00 155.66,386.36 154.14,385.57 C152.62,384.79 147.81,383.22 143.44,382.08 C139.07,380.95 131.68,378.84 127.00,377.39 C122.32,375.95 116.47,374.39 114.00,373.92 C111.53,373.46 107.35,372.41 104.73,371.58 C97.73,369.38 95.16,370.98 98.53,375.44 C99.34,376.51 100.00,377.86 100.00,378.44 C100.00,379.02 98.43,377.28 96.50,374.57 C94.57,371.86 93.00,369.28 93.00,368.82 C93.00,367.52 98.04,367.88 103.50,369.57 C106.25,370.42 115.03,372.85 123.00,374.96 C130.98,377.07 144.70,380.93 153.50,383.53 C162.30,386.13 170.85,388.59 172.50,389.00 C174.15,389.41 177.88,390.71 180.79,391.88 C183.69,393.04 187.10,394.00 188.35,394.00 C189.60,394.00 192.89,395.09 195.65,396.42 C199.98,398.51 200.91,399.51 202.46,403.67 C203.44,406.33 204.79,409.40 205.46,410.50 C206.13,411.60 206.99,413.74 207.36,415.25 ZM 116.78 285.05 C116.08,285.90 114.60,287.25 113.50,288.05 C112.40,288.85 113.98,286.66 117.00,283.18 C120.03,279.70 124.53,274.44 127.00,271.48 C137.99,258.35 146.75,248.16 150.61,244.00 C152.91,241.52 157.20,236.56 160.14,232.96 C171.17,219.50 183.46,206.06 184.09,206.77 C185.27,208.08 186.13,224.00 185.02,224.00 C184.46,224.00 184.00,221.78 184.00,219.06 C184.00,210.31 179.90,210.99 172.00,221.06 C168.98,224.92 164.30,230.42 161.61,233.29 C158.92,236.15 154.28,241.51 151.30,245.19 C148.32,248.87 145.53,252.02 145.10,252.19 C144.67,252.36 142.63,254.75 140.56,257.50 C138.49,260.25 134.26,265.21 131.15,268.53 C126.28,273.73 123.46,276.97 116.78,285.05 ZM 336.00 140.89 C329.67,141.49 323.15,141.94 321.50,141.88 C315.55,141.68 326.01,140.29 342.50,139.10 C351.30,138.46 361.66,137.61 365.53,137.22 C376.13,136.14 416.01,136.39 420.00,137.56 C422.85,138.40 423.16,138.72 421.66,139.30 C420.58,139.71 418.70,139.35 417.11,138.41 C414.67,136.97 412.07,136.93 390.95,138.04 C378.05,138.72 363.00,139.39 357.50,139.54 C352.00,139.69 342.33,140.30 336.00,140.89 ZM 331.00 225.72 C331.00,226.58 327.18,231.15 322.51,235.89 C317.85,240.63 314.02,243.97 314.01,243.32 C314.01,242.68 315.12,241.26 316.50,240.18 C317.88,239.10 319.00,237.79 319.00,237.28 C319.00,236.78 321.02,234.24 323.50,231.66 C325.98,229.08 328.00,226.54 328.00,226.02 C328.00,224.33 324.25,223.00 319.50,223.00 C316.95,223.00 314.06,222.57 313.07,222.04 C312.08,221.51 305.92,220.39 299.38,219.55 C283.60,217.54 277.02,216.40 274.00,215.16 C269.90,213.47 274.15,213.74 286.00,215.92 C291.77,216.99 302.80,218.81 310.50,219.98 C326.99,222.47 331.00,223.59 331.00,225.72 ZM 83.00 328.11 C83.00,331.28 82.26,331.65 79.70,329.75 C78.18,328.62 78.48,327.96 82.76,322.93 C85.37,319.87 89.53,314.95 92.00,312.00 C103.21,298.64 111.94,289.24 111.97,290.50 C111.99,291.06 109.53,294.10 106.50,297.28 C103.47,300.45 101.00,303.54 101.00,304.15 C101.00,304.75 98.41,307.85 95.25,311.04 C86.68,319.68 83.00,324.81 83.00,328.11 ZM 258.00 177.02 C258.00,177.56 257.89,177.95 257.75,177.89 C257.61,177.84 252.77,176.54 247.00,175.01 C235.72,172.03 220.39,166.43 219.49,164.98 C218.71,163.72 222.77,161.27 228.51,159.55 C235.03,157.58 235.49,158.34 229.08,160.47 C220.23,163.41 221.16,165.25 233.50,169.20 C241.84,171.87 250.55,174.36 255.25,175.42 C256.76,175.76 258.00,176.48 258.00,177.02 ZM 261.00 211.40 C269.01,213.23 270.55,213.82 267.50,213.89 C265.30,213.93 262.83,213.53 262.00,213.00 C261.17,212.47 259.05,212.02 257.28,212.02 C255.52,212.01 252.14,211.37 249.78,210.61 C247.43,209.85 244.21,208.92 242.63,208.56 C241.05,208.20 239.97,207.70 240.22,207.45 C240.73,206.94 245.56,207.85 261.00,211.40 ZM 175.89 472.11 C177.34,473.29 177.69,474.00 176.82,474.00 C175.18,474.00 166.56,465.30 165.67,462.75 C165.32,461.75 166.53,462.47 168.48,464.42 C171.07,467.01 172.46,467.69 174.20,467.25 C176.31,466.70 176.38,466.80 175.03,468.44 C173.72,470.05 173.80,470.42 175.89,472.11 ZM 297.44 145.34 C295.20,146.08 290.03,146.92 285.94,147.21 L 278.50 147.74 L 283.84 146.46 C286.77,145.75 291.95,144.91 295.34,144.59 L 301.50 144.00 ZM 138.00 345.12 C138.00,345.60 137.89,345.95 137.75,345.90 C137.61,345.84 135.25,345.07 132.50,344.19 C128.57,342.93 128.00,342.51 129.84,342.21 C132.47,341.79 138.00,343.76 138.00,345.12 Z" fill="rgb(229,187,70)"/>
<path d="M 116.78 285.05 C123.46,276.97 126.28,273.73 131.15,268.53 C134.26,265.21 138.49,260.25 140.56,257.50 C142.63,254.75 144.67,252.36 145.10,252.19 C145.53,252.02 148.32,248.87 151.30,245.19 C154.28,241.51 158.92,236.15 161.61,233.29 C164.30,230.42 168.98,224.92 172.00,221.06 C179.90,210.99 184.00,210.31 184.00,219.06 C184.00,221.78 184.46,224.00 185.02,224.00 C185.35,224.00 185.51,222.58 185.53,220.55 C185.71,223.47 185.88,226.70 186.03,230.07 C186.58,242.40 187.67,261.27 188.45,272.00 C188.98,279.27 189.67,288.94 190.24,297.16 C189.57,292.17 189.17,294.65 189.52,307.00 C189.76,315.52 190.17,324.98 190.43,328.00 C191.73,343.22 191.84,354.89 190.69,355.82 C189.31,356.94 181.73,355.73 172.29,352.87 C168.88,351.84 165.33,351.00 164.42,351.00 C163.51,351.00 160.00,350.14 156.63,349.08 C148.44,346.51 140.00,344.66 139.37,345.30 C139.17,345.50 139.66,345.82 141.16,346.36 C140.41,346.15 139.69,345.94 139.00,345.74 C138.66,345.65 138.32,345.55 137.98,345.45 C137.99,345.36 138.00,345.24 138.00,345.12 C138.00,343.76 132.47,341.79 129.84,342.21 C128.78,342.39 128.52,342.60 129.24,342.99 C123.30,341.32 118.31,339.94 116.50,339.46 C113.75,338.75 109.03,337.42 106.00,336.52 C102.97,335.62 98.39,334.49 95.82,334.01 C93.24,333.53 90.23,332.66 89.13,332.07 C88.03,331.48 85.84,331.00 84.26,331.00 C83.67,331.00 83.02,330.92 82.38,330.79 C82.83,330.49 83.00,329.62 83.00,328.11 C83.00,324.81 86.68,319.68 95.25,311.04 C98.41,307.85 101.00,304.75 101.00,304.15 C101.00,303.54 103.47,300.45 106.50,297.28 C109.53,294.10 111.99,291.06 111.97,290.50 C111.96,289.83 109.43,292.22 105.36,296.65 C108.43,293.13 112.07,288.92 115.54,284.89 C113.50,287.34 112.60,288.71 113.50,288.05 C114.60,287.25 116.08,285.90 116.78,285.05 ZM 225.19 202.18 C226.69,202.68 228.45,203.29 230.50,204.02 C233.80,205.18 239.43,206.73 243.00,207.46 C246.57,208.19 254.90,209.92 261.50,211.32 C266.64,212.40 272.14,213.49 278.11,214.58 C272.47,213.74 271.00,213.92 274.00,215.16 C277.02,216.40 283.60,217.54 299.38,219.55 C305.92,220.39 312.08,221.51 313.07,222.04 C314.06,222.57 316.95,223.00 319.50,223.00 C324.25,223.00 328.00,224.33 328.00,226.02 C328.00,226.54 325.98,229.08 323.50,231.66 C321.02,234.24 319.00,236.78 319.00,237.28 C319.00,237.79 317.88,239.10 316.50,240.18 C315.12,241.26 314.01,242.68 314.01,243.32 C314.02,243.97 317.85,240.63 322.51,235.89 C324.69,233.68 326.67,231.51 328.18,229.74 C326.62,231.63 324.53,233.97 322.25,236.37 C319.36,239.40 315.33,243.70 311.49,247.83 C312.72,246.23 313.02,245.48 312.02,246.01 C310.65,246.73 308.63,248.48 307.52,249.90 C306.41,251.32 303.02,255.05 300.00,258.20 C296.98,261.34 293.73,264.72 292.80,265.71 C291.86,266.69 290.63,267.95 290.06,268.50 C288.39,270.12 282.13,277.09 277.14,282.91 C271.01,290.05 253.05,309.67 248.71,313.96 C247.72,314.93 245.88,317.14 244.61,318.85 C243.34,320.57 240.58,323.35 238.47,325.02 C236.36,326.70 233.80,329.44 232.79,331.11 C231.77,332.78 230.41,333.97 229.76,333.75 C227.73,333.08 225.90,321.29 224.52,300.00 C223.79,288.73 222.72,274.10 222.14,267.50 C220.90,253.30 219.24,228.60 218.57,214.28 C218.05,203.17 218.27,202.65 223.39,202.79 C225.12,202.83 225.64,202.58 225.19,202.18 ZM 389.00 189.88 C391.48,189.64 363.66,187.98 355.00,187.85 C350.41,187.78 323.76,185.62 307.50,184.00 C302.55,183.51 294.23,182.36 289.00,181.44 C283.77,180.53 277.25,179.61 274.50,179.40 C270.21,179.06 269.86,179.16 272.00,180.10 C275.10,181.45 296.29,184.87 309.00,186.06 C312.22,186.37 315.19,186.64 317.92,186.89 C315.19,186.64 312.23,186.37 309.00,186.06 C296.65,184.91 281.76,182.59 270.50,180.08 C267.37,179.38 262.60,178.32 257.99,177.28 C258.00,177.20 258.00,177.11 258.00,177.02 C258.00,176.48 256.76,175.76 255.25,175.42 C250.55,174.36 241.84,171.87 233.50,169.20 C221.16,165.25 220.23,163.41 229.08,160.47 C233.16,159.12 234.46,158.32 233.18,158.42 C240.71,156.11 249.82,153.58 254.50,152.63 C258.98,151.72 265.41,150.33 276.00,147.99 C277.74,147.61 280.13,147.16 282.99,146.66 L 278.50 147.74 L 285.94 147.21 C290.03,146.92 295.20,146.08 297.44,145.34 L 301.50 144.00 L 297.18 144.41 C305.24,143.22 314.23,142.01 322.38,141.03 C319.45,141.47 318.86,141.79 321.50,141.88 C323.15,141.94 329.67,141.49 336.00,140.89 C342.33,140.30 352.00,139.69 357.50,139.54 C363.00,139.39 378.05,138.72 390.95,138.04 C412.07,136.93 414.67,136.97 417.11,138.41 C418.70,139.35 420.58,139.71 421.66,139.30 C422.83,138.85 422.90,138.55 421.53,138.05 C422.57,138.16 423.66,138.22 424.69,138.21 C431.37,138.15 434.08,140.15 431.36,143.15 C430.18,144.45 428.74,144.92 426.82,144.62 C425.27,144.37 424.00,144.59 424.00,145.09 C424.00,145.59 422.67,146.00 421.05,146.00 C418.17,146.00 418.08,146.16 417.39,152.25 C417.00,155.69 416.49,157.93 416.25,157.24 C416.02,156.55 415.44,156.23 414.96,156.53 C414.48,156.82 414.33,157.69 414.62,158.45 C415.32,160.27 413.30,164.00 411.61,164.00 C410.89,164.00 409.10,165.11 407.63,166.46 C406.17,167.82 404.38,168.70 403.65,168.42 C402.93,168.14 402.28,168.50 402.21,169.21 C402.14,169.92 401.63,173.88 401.08,178.00 C400.54,182.12 400.07,186.23 400.04,187.12 C400.01,188.29 398.68,188.92 395.25,189.37 C392.23,189.77 387.88,190.08 383.31,190.28 C385.36,190.17 387.30,190.04 389.00,189.88 ZM 175.89 472.11 C173.80,470.42 173.72,470.05 175.03,468.44 C176.38,466.80 176.31,466.70 174.20,467.25 C172.46,467.69 171.07,467.01 168.48,464.42 C166.98,462.91 165.91,462.14 165.67,462.33 C165.57,462.11 165.50,461.92 165.46,461.75 C165.09,460.24 164.45,459.00 164.04,459.00 C163.28,459.00 154.32,448.07 152.50,444.93 C151.95,443.98 147.79,438.77 143.25,433.35 C138.72,427.93 130.17,417.26 124.25,409.63 C118.34,402.00 110.91,392.55 107.73,388.63 C104.54,384.67 101.79,381.21 99.57,378.34 C99.84,378.57 100.00,378.62 100.00,378.44 C100.00,377.86 99.34,376.51 98.53,375.44 C95.16,370.98 97.73,369.38 104.73,371.58 C107.35,372.41 111.53,373.46 114.00,373.92 C116.47,374.39 122.32,375.95 127.00,377.39 C131.68,378.84 139.07,380.95 143.44,382.08 C147.81,383.22 152.62,384.79 154.14,385.57 C155.66,386.36 158.25,387.00 159.89,387.00 C161.54,387.00 164.37,387.87 166.19,388.94 C168.01,390.01 171.75,391.19 174.50,391.55 C177.25,391.92 180.72,392.85 182.20,393.61 C183.69,394.37 185.77,395.00 186.83,395.00 C187.88,395.00 191.20,396.08 194.20,397.41 C199.60,399.80 199.69,399.91 203.46,408.91 C207.01,417.38 208.34,419.77 207.62,416.37 C208.17,418.10 209.40,420.50 210.58,422.10 C211.94,423.95 213.32,427.14 213.65,429.21 C213.98,431.27 214.87,433.48 215.62,434.10 C216.38,434.73 217.00,436.76 217.00,438.62 C217.00,441.49 216.65,442.00 214.67,442.00 C213.38,442.00 212.03,441.70 211.66,441.33 C211.30,440.96 209.44,440.50 207.54,440.31 C204.28,439.97 204.03,440.17 203.05,443.81 C202.04,447.58 199.05,450.00 195.43,450.00 C194.20,450.00 194.06,451.12 194.60,456.41 C195.26,462.81 195.25,462.82 192.18,464.41 C190.48,465.28 188.41,466.00 187.57,466.00 C186.73,466.00 185.29,467.15 184.37,468.55 C183.46,469.95 181.44,471.75 179.90,472.55 C178.97,473.03 178.01,473.46 177.29,473.72 C177.28,473.41 176.81,472.85 175.89,472.11 ZM 261.00 211.40 C245.56,207.85 240.73,206.94 240.22,207.45 C239.97,207.70 241.05,208.20 242.63,208.56 C244.21,208.92 247.43,209.85 249.78,210.61 C252.14,211.37 255.52,212.01 257.28,212.02 C259.05,212.02 261.17,212.47 262.00,213.00 C262.83,213.53 265.30,213.93 267.50,213.89 C270.55,213.82 269.01,213.23 261.00,211.40 ZM 258.97 365.90 C254.22,368.37 254.00,368.41 254.00,366.67 C254.00,365.15 257.45,361.79 260.75,360.09 C262.78,359.04 263.00,359.16 263.00,361.36 C263.00,363.19 262.00,364.32 258.97,365.90 ZM 279.97 344.52 C277.66,345.94 273.00,346.84 273.00,345.85 C273.00,344.51 278.56,339.00 279.92,339.00 C281.30,339.00 281.34,343.67 279.97,344.52 ZM 287.47 335.11 C286.75,337.37 285.16,337.58 284.37,335.52 C283.78,333.98 288.99,328.00 290.92,328.00 C292.88,328.00 292.09,332.16 290.03,332.70 C288.95,332.98 287.80,334.07 287.47,335.11 ZM 271.82 351.83 C271.77,355.93 270.36,356.72 267.21,354.41 C265.62,353.25 265.68,352.97 267.92,350.58 C271.19,347.10 271.88,347.32 271.82,351.83 ZM 300.50 321.01 C300.50,322.80 299.89,323.59 298.34,323.81 C295.57,324.20 294.61,322.60 296.02,319.96 C297.53,317.14 300.50,317.84 300.50,321.01 ZM 271.50 365.50 C271.50,368.09 266.31,368.96 265.37,366.52 C264.57,364.44 265.13,363.95 268.63,363.70 C270.90,363.54 271.50,363.92 271.50,365.50 ZM 347.71 270.00 C347.07,272.46 344.99,272.65 345.02,270.25 C345.04,268.08 349.58,263.62 350.93,264.46 C352.23,265.26 351.14,268.00 349.51,268.00 C348.81,268.00 348.00,268.90 347.71,270.00 ZM 417.45 137.20 C411.37,136.68 396.76,136.44 384.19,136.56 C401.34,135.96 415.15,136.01 417.03,137.01 C417.15,137.08 417.29,137.14 417.45,137.20 ZM 332.23 283.44 C332.83,286.58 331.71,287.56 329.95,285.44 C328.90,284.18 328.95,283.62 330.20,282.37 C331.58,280.99 331.79,281.10 332.23,283.44 ZM 286.95 344.15 C287.73,344.41 287.43,345.35 286.07,346.92 C284.77,348.42 284.01,348.78 284.02,347.90 C284.04,345.75 285.63,343.71 286.95,344.15 ZM 305.00 314.00 C305.00,314.55 304.55,315.00 304.00,315.00 C303.45,315.00 303.00,314.55 303.00,314.00 C303.00,313.45 303.45,313.00 304.00,313.00 C304.55,313.00 305.00,313.45 305.00,314.00 ZM 359.83 137.74 C354.96,138.15 348.38,138.67 342.50,139.10 C338.34,139.40 334.56,139.71 331.34,140.02 C340.25,139.09 349.97,138.34 359.83,137.74 ZM 193.92 352.98 C193.90,351.71 193.81,350.11 193.67,348.05 C193.48,345.26 193.13,339.61 192.76,333.19 C192.85,334.39 192.93,335.50 193.01,336.50 C193.65,344.91 193.97,349.88 193.92,352.98 ZM 176.57 473.95 C176.44,473.98 176.34,474.00 176.26,474.00 C175.36,474.00 172.53,471.27 169.99,468.32 C172.51,470.98 175.41,473.57 176.57,473.95 ZM 302.05 258.09 C298.01,262.51 294.41,266.42 293.48,267.39 C292.89,268.01 291.97,269.00 290.79,270.27 C292.65,268.22 294.38,266.32 295.50,265.07 C297.69,262.64 300.62,259.52 302.05,258.09 ZM 225.01 323.27 C225.35,325.60 225.65,328.25 225.83,330.38 C225.65,328.25 225.35,325.60 225.01,323.27 C224.47,319.55 223.30,305.48 222.42,292.00 C221.55,278.52 220.43,262.10 219.95,255.50 C219.54,250.02 219.15,244.10 218.79,238.24 C219.15,243.75 219.54,249.46 219.94,255.03 C220.47,262.44 221.61,279.30 222.46,292.50 C223.32,305.70 224.47,319.55 225.01,323.27 ZM 221.80 166.38 C224.17,167.50 228.11,169.02 232.55,170.56 C227.96,169.03 224.02,167.52 221.80,166.38 ZM 221.85 162.27 C220.29,163.16 219.38,164.01 219.39,164.66 C219.02,164.10 219.56,163.68 221.22,162.59 C221.36,162.50 221.57,162.39 221.85,162.27 ZM 188.41 359.48 C189.72,359.77 190.43,359.81 190.94,359.65 C190.27,359.99 189.64,359.89 188.50,359.51 C188.48,359.50 188.45,359.49 188.41,359.48 ZM 96.33 306.89 C94.94,308.51 93.49,310.22 92.00,312.00 C89.53,314.95 85.37,319.87 82.76,322.93 C85.37,319.87 89.53,314.94 92.00,311.98 C93.52,310.16 95.13,308.27 96.33,306.89 ZM 301.48 218.56 C304.55,219.05 307.72,219.54 311.00,220.04 C314.78,220.62 317.89,221.12 320.43,221.59 C317.78,221.11 314.51,220.58 310.50,219.98 C307.78,219.56 304.65,219.07 301.48,218.56 ZM 130.10 267.78 C134.82,262.15 139.57,256.57 143.46,252.08 C139.81,256.30 135.26,261.65 130.10,267.78 ZM 206.47 412.60 C206.14,411.78 205.78,411.02 205.46,410.50 C204.79,409.40 203.44,406.33 202.46,403.67 C203.44,406.33 204.80,409.41 205.49,410.51 C205.80,411.02 206.15,411.77 206.47,412.60 ZM 367.43 190.47 C364.71,190.39 362.74,190.22 362.10,189.95 C361.02,189.51 358.00,189.19 354.81,189.16 C358.00,189.19 361.02,189.50 362.10,189.95 C362.73,190.21 364.72,190.38 367.43,190.47 ZM 173.61 217.21 C169.52,221.78 164.72,227.37 160.14,232.96 C164.86,227.20 169.60,221.68 173.61,217.21 ZM 184.44 207.58 C184.33,207.21 184.23,206.95 184.12,206.80 C184.17,206.80 184.21,206.81 184.23,206.83 C184.29,206.89 184.36,207.15 184.44,207.58 ZM 93.70 370.30 C93.24,369.57 93.00,369.09 93.00,368.89 C93.00,368.88 93.00,368.86 93.00,368.85 C93.02,369.06 93.28,369.58 93.70,370.30 ZM 329.42 223.87 C330.56,224.42 331.00,225.00 331.00,225.67 C331.00,225.67 331.00,225.68 331.00,225.68 C330.99,225.00 330.55,224.43 329.42,223.87 ZM 119.80 279.94 C120.82,278.75 121.79,277.62 122.68,276.58 C121.73,277.69 120.75,278.84 119.80,279.94 Z" fill="rgb(251,197,45)"/>
<path d="M 0.00 490.00 L 0.00 0.00 L 490.00 0.00 L 980.00 0.00 L 980.00 490.00 L 980.00 980.00 L 490.00 980.00 L 0.00 980.00 L 0.00 490.00 ZM 469.37 832.25 C470.76,804.76 471.13,655.47 469.87,631.00 C469.17,617.53 468.58,601.83 468.55,596.12 C468.50,586.12 468.41,585.70 466.12,584.85 C463.32,583.81 461.00,585.30 461.00,588.13 C461.00,589.17 459.88,590.99 458.50,592.19 C457.12,593.38 456.00,595.12 456.00,596.06 C456.00,598.22 454.18,599.71 451.01,600.15 C449.45,600.37 448.40,601.24 448.20,602.50 C448.03,603.60 447.28,605.85 446.55,607.50 C445.82,609.15 444.82,611.85 444.34,613.50 C443.64,615.90 442.83,616.56 440.34,616.81 C437.78,617.06 437.10,617.65 436.61,620.06 C436.27,621.67 435.72,624.37 435.38,626.04 C434.98,628.01 433.75,629.59 431.88,630.56 C429.92,631.57 429.00,632.82 429.00,634.44 C429.00,638.58 427.94,640.00 424.86,640.00 C423.25,640.00 421.79,640.56 421.61,641.25 C420.11,646.87 419.29,648.34 417.50,648.60 C415.29,648.91 411.01,653.55 409.04,657.78 C408.34,659.27 407.43,661.17 407.03,662.00 C406.62,662.83 405.43,663.66 404.39,663.87 C401.98,664.33 401.03,665.82 401.02,669.17 C401.00,672.40 400.08,675.00 398.96,675.00 C398.51,675.00 397.42,674.28 396.55,673.40 C395.67,672.52 394.33,672.04 393.58,672.33 C389.70,673.82 387.37,686.40 390.50,689.00 C391.33,689.68 392.00,691.00 392.00,691.93 C392.00,692.85 393.12,695.14 394.50,697.00 C395.88,698.86 397.00,700.95 397.00,701.64 C397.00,702.32 398.79,706.40 400.99,710.69 C403.18,714.99 404.98,719.10 404.99,719.83 C404.99,720.56 406.53,723.77 408.39,726.95 C410.25,730.13 412.11,733.80 412.51,735.12 C413.38,737.99 463.58,838.23 466.66,843.25 C468.12,845.64 468.84,842.72 469.37,832.25 ZM 504.30 841.25 C505.09,839.74 509.90,830.62 514.99,821.00 C520.08,811.38 527.84,796.53 532.23,788.00 C536.63,779.47 540.57,772.05 540.98,771.50 C541.39,770.95 545.46,763.30 550.01,754.50 C554.56,745.70 559.97,735.35 562.02,731.50 C567.12,721.95 573.42,709.97 581.49,694.50 C585.22,687.35 590.40,677.45 593.01,672.50 C595.61,667.55 600.33,658.55 603.50,652.50 C606.67,646.45 611.17,637.90 613.50,633.50 C619.31,622.56 627.25,607.37 636.50,589.50 C640.78,581.25 645.84,571.60 647.76,568.06 C649.67,564.53 656.41,551.70 662.72,539.56 C669.03,527.43 675.45,515.25 676.97,512.50 C678.50,509.75 683.01,501.20 687.00,493.50 C699.96,468.49 706.21,456.58 708.49,452.50 C715.53,439.93 730.12,410.79 729.62,410.29 C728.84,409.51 658.58,415.77 653.88,417.03 C651.89,417.56 645.39,418.24 639.43,418.53 C633.47,418.82 626.09,419.69 623.05,420.48 C620.00,421.27 614.35,422.17 610.50,422.49 C589.68,424.21 583.96,425.38 583.43,428.00 C582.91,430.58 581.39,432.00 579.14,432.03 C577.69,432.05 575.82,432.61 575.00,433.28 C572.85,435.03 568.00,442.70 568.00,444.36 C568.00,446.08 566.14,447.67 563.56,448.14 C561.68,448.49 561.24,449.66 558.56,461.35 C557.96,464.00 557.66,464.16 554.38,463.54 C550.38,462.79 547.97,464.17 548.66,466.79 C548.90,467.74 548.43,470.09 547.59,472.01 C546.76,473.93 546.06,474.94 546.04,474.26 C546.02,473.54 545.05,473.16 543.75,473.35 C542.00,473.62 541.36,474.56 540.88,477.60 C540.34,480.96 537.42,489.11 535.01,494.00 C534.56,494.92 532.80,495.53 530.45,495.57 C526.49,495.64 525.91,496.20 524.35,501.50 C523.63,503.92 522.84,504.56 520.23,504.81 C517.26,505.10 516.99,505.43 516.85,508.81 C516.77,510.84 516.78,513.65 516.89,515.05 C517.08,517.62 514.15,522.00 512.24,522.00 C511.68,522.00 510.87,523.24 510.45,524.75 C510.03,526.26 509.45,528.17 509.17,529.00 C508.88,529.83 508.48,537.59 508.28,546.25 C508.07,554.91 507.52,562.00 507.06,562.00 C505.67,562.00 504.88,566.90 505.94,568.89 C506.59,570.10 506.60,571.92 505.97,574.10 C504.53,579.12 501.05,844.00 502.43,844.00 C502.66,844.00 503.50,842.76 504.30,841.25 ZM 607.73 732.40 C621.35,715.29 636.10,696.67 640.50,691.02 C650.30,678.42 661.07,664.88 662.46,663.40 C663.03,662.79 666.20,658.80 669.50,654.53 C672.80,650.26 680.22,640.84 686.00,633.59 C701.03,614.74 724.23,585.51 741.55,563.59 C758.87,541.69 781.21,513.52 805.47,483.00 C814.87,471.17 824.80,458.58 827.53,455.00 C830.26,451.42 832.75,448.27 833.05,448.00 C833.81,447.32 844.61,433.86 849.43,427.61 C853.51,422.31 876.76,392.99 885.20,382.50 C889.21,377.52 889.72,376.45 888.22,376.21 C887.22,376.05 869.10,380.18 847.95,385.39 C826.80,390.61 800.58,397.04 789.68,399.69 L 769.86 404.50 L 759.13 425.00 C753.23,436.27 744.87,452.25 740.56,460.50 C736.25,468.75 731.66,477.43 730.36,479.78 C729.07,482.14 723.90,492.04 718.87,501.78 C713.85,511.53 709.16,520.43 708.46,521.57 C707.76,522.71 704.16,529.46 700.46,536.57 C696.76,543.68 689.80,556.92 685.00,566.00 C680.20,575.08 672.77,589.25 668.50,597.50 C658.40,617.01 651.61,629.97 641.51,649.00 C633.11,664.84 617.23,695.03 606.00,716.50 C602.55,723.10 598.72,730.30 597.48,732.50 C591.77,742.63 581.16,764.11 582.01,763.82 C582.53,763.65 594.10,749.50 607.73,732.40 ZM 179.90 472.55 C181.44,471.75 183.46,469.95 184.37,468.55 C185.29,467.15 186.73,466.00 187.57,466.00 C188.41,466.00 190.48,465.28 192.18,464.41 C195.25,462.82 195.26,462.81 194.60,456.41 C194.06,451.12 194.20,450.00 195.43,450.00 C199.05,450.00 202.04,447.58 203.05,443.81 C204.03,440.17 204.28,439.97 207.54,440.31 C209.44,440.50 211.30,440.96 211.66,441.33 C212.03,441.70 213.38,442.00 214.67,442.00 C216.65,442.00 217.00,441.49 217.00,438.62 C217.00,436.76 216.38,434.73 215.62,434.10 C214.87,433.48 213.98,431.27 213.65,429.21 C213.32,427.14 211.94,423.95 210.58,422.10 C209.22,420.26 207.80,417.35 207.42,415.64 C207.05,413.93 206.18,411.62 205.49,410.51 C204.80,409.41 203.44,406.33 202.46,403.67 C200.91,399.51 199.98,398.51 195.65,396.42 C192.89,395.09 189.60,394.00 188.35,394.00 C187.10,394.00 183.69,393.04 180.79,391.88 C177.88,390.71 174.15,389.41 172.50,389.00 C170.85,388.59 162.30,386.13 153.50,383.53 C144.70,380.93 130.98,377.07 123.00,374.96 C115.03,372.85 106.25,370.42 103.50,369.57 C97.94,367.85 93.00,367.53 93.00,368.89 C93.00,369.84 98.45,377.15 107.73,388.63 C110.91,392.55 118.34,402.00 124.25,409.63 C130.17,417.26 138.72,427.93 143.25,433.35 C147.79,438.77 151.95,443.98 152.50,444.93 C154.32,448.07 163.28,459.00 164.04,459.00 C164.45,459.00 165.09,460.24 165.46,461.75 C166.11,464.41 174.57,474.00 176.26,474.00 C176.72,474.00 178.36,473.35 179.90,472.55 ZM 620.01 383.25 C620.01,382.84 626.42,382.50 634.26,382.50 C642.09,382.50 654.12,382.16 661.00,381.74 C667.88,381.32 678.67,380.83 685.00,380.65 C695.68,380.34 730.60,377.42 735.79,376.39 C737.79,376.00 737.91,375.71 736.79,374.11 C733.99,370.13 708.50,340.10 704.87,336.50 C704.32,335.95 701.64,333.34 698.93,330.71 C696.22,328.08 694.00,325.49 694.00,324.96 C694.00,324.43 693.43,324.00 692.73,324.00 C692.04,324.00 689.67,321.92 687.48,319.39 C675.11,305.06 670.38,301.67 671.66,308.04 C671.99,309.72 671.87,311.00 671.38,310.89 C670.90,310.77 669.83,310.96 669.00,311.30 C668.17,311.64 666.17,312.05 664.54,312.21 C662.07,312.45 661.46,313.06 660.90,315.83 C660.52,317.66 659.27,319.82 658.11,320.64 C656.95,321.45 656.00,322.91 656.00,323.88 C656.00,324.86 654.88,326.71 653.50,328.00 C651.98,329.43 651.00,331.45 651.00,333.17 C651.00,334.73 650.55,336.06 650.00,336.12 C649.45,336.19 648.55,336.36 648.00,336.50 C647.45,336.64 646.60,336.81 646.11,336.88 C645.63,336.94 644.98,338.24 644.67,339.75 C642.79,349.12 641.38,351.02 635.54,352.00 C633.22,352.39 632.44,353.15 631.96,355.50 C631.62,357.15 630.84,359.40 630.23,360.50 C629.62,361.60 628.85,363.78 628.51,365.36 C628.16,367.02 627.10,368.42 625.95,368.72 C624.74,369.04 624.00,370.09 624.00,371.49 C624.00,374.03 622.47,375.61 619.50,376.15 C618.40,376.35 617.05,377.55 616.50,378.82 C615.91,380.19 614.27,381.41 612.50,381.81 C609.65,382.45 609.72,382.51 614.00,383.09 C616.47,383.42 618.84,383.77 619.25,383.85 C619.66,383.93 620.00,383.66 620.01,383.25 ZM 800.37 364.06 C836.53,355.18 881.31,344.22 890.66,341.95 C902.06,339.18 902.70,338.83 900.88,336.25 C899.24,333.92 890.35,323.56 883.95,316.51 C881.44,313.75 874.49,305.88 868.49,299.00 C862.50,292.12 857.35,286.27 857.05,286.00 C856.75,285.73 853.35,281.90 849.51,277.50 C845.66,273.10 842.29,269.27 842.01,269.00 C841.73,268.73 838.35,264.90 834.50,260.51 C830.65,256.11 823.34,248.34 818.25,243.23 C813.16,238.12 808.99,233.61 808.99,233.22 C808.98,232.82 806.24,229.57 802.89,226.00 C799.55,222.43 795.01,217.57 792.81,215.21 C788.34,210.41 786.66,210.66 785.63,216.28 C784.70,221.34 777.01,353.74 777.00,364.75 C777.00,368.00 777.38,369.00 778.62,369.00 C779.51,369.00 789.30,366.78 800.37,364.06 ZM 258.97 365.90 C262.00,364.32 263.00,363.19 263.00,361.36 C263.00,359.16 262.78,359.04 260.75,360.09 C257.45,361.79 254.00,365.15 254.00,366.67 C254.00,368.41 254.22,368.37 258.97,365.90 ZM 271.50 365.50 C271.50,363.92 270.90,363.54 268.63,363.70 C265.13,363.95 264.57,364.44 265.37,366.52 C266.31,368.96 271.50,368.09 271.50,365.50 ZM 192.43 358.43 C194.27,356.58 194.34,353.90 193.01,336.50 C192.46,329.35 191.53,316.30 190.94,307.50 C190.35,298.70 189.23,282.73 188.45,272.00 C187.67,261.27 186.58,242.40 186.03,230.07 C185.48,217.73 184.67,207.27 184.23,206.83 C183.48,206.08 171.75,218.79 160.14,232.96 C157.20,236.56 152.91,241.52 150.61,244.00 C146.70,248.21 136.70,259.85 127.50,270.90 C122.45,276.96 100.00,302.93 98.00,305.02 C97.18,305.89 94.47,309.01 92.00,311.98 C89.53,314.94 85.37,319.87 82.76,322.93 C78.48,327.96 78.18,328.62 79.70,329.75 C80.62,330.44 82.68,331.00 84.26,331.00 C85.84,331.00 88.03,331.48 89.13,332.07 C90.23,332.66 93.24,333.53 95.82,334.01 C98.39,334.49 102.97,335.62 106.00,336.52 C109.03,337.42 113.75,338.75 116.50,339.46 C119.25,340.18 129.38,343.01 139.00,345.74 C148.62,348.48 163.48,352.62 172.00,354.94 C180.52,357.27 187.95,359.32 188.50,359.51 C190.37,360.13 190.86,360.00 192.43,358.43 ZM 271.82 351.83 C271.88,347.32 271.19,347.10 267.92,350.58 C265.68,352.97 265.62,353.25 267.21,354.41 C270.36,356.72 271.77,355.93 271.82,351.83 ZM 286.95 344.15 C285.63,343.71 284.04,345.75 284.02,347.90 C284.01,348.78 284.77,348.42 286.07,346.92 C287.43,345.35 287.73,344.41 286.95,344.15 ZM 279.97 344.52 C281.34,343.67 281.30,339.00 279.92,339.00 C278.56,339.00 273.00,344.51 273.00,345.85 C273.00,346.84 277.66,345.94 279.97,344.52 ZM 231.17 336.35 C232.18,335.43 233.00,334.09 233.00,333.36 C233.00,332.63 236.27,328.76 240.27,324.77 C248.75,316.30 262.54,301.63 272.50,290.49 C281.08,280.90 290.77,270.22 293.48,267.39 C294.59,266.22 299.55,260.84 304.50,255.41 C309.45,249.99 317.44,241.42 322.25,236.37 C327.06,231.31 331.00,226.50 331.00,225.67 C331.00,223.62 326.93,222.48 311.00,220.04 C290.95,216.98 274.95,214.16 261.50,211.32 C254.90,209.92 246.57,208.19 243.00,207.46 C239.43,206.73 233.80,205.18 230.50,204.02 C221.04,200.68 217.85,199.81 217.25,200.41 C216.70,200.96 218.23,232.23 219.95,255.50 C220.43,262.10 221.55,278.52 222.42,292.00 C223.30,305.48 224.47,319.55 225.01,323.27 C225.55,326.99 226.00,331.57 226.00,333.44 C226.00,336.33 226.78,337.52 228.92,337.92 C229.15,337.96 230.17,337.26 231.17,336.35 ZM 287.47 335.11 C287.80,334.07 288.95,332.98 290.03,332.70 C292.09,332.16 292.88,328.00 290.92,328.00 C288.99,328.00 283.78,333.98 284.37,335.52 C285.16,337.58 286.75,337.37 287.47,335.11 ZM 746.39 327.41 C746.70,326.63 747.20,313.05 747.51,297.24 C748.08,268.17 748.36,261.92 749.60,249.77 C750.11,244.71 749.94,242.64 748.90,241.39 C747.63,239.84 747.27,234.75 746.82,211.33 C746.76,208.19 746.30,207.05 744.93,206.69 C742.76,206.12 740.00,208.88 740.00,211.61 C740.00,214.49 737.18,218.00 734.85,218.00 C733.65,218.00 732.60,218.83 732.29,220.00 C732.00,221.10 731.33,222.00 730.80,222.00 C730.22,222.00 730.09,223.57 730.47,225.81 C731.05,229.24 730.85,229.75 728.51,230.81 C727.08,231.47 725.08,232.00 724.08,232.00 C721.38,232.00 719.67,234.61 720.30,237.75 C720.60,239.26 720.53,242.07 720.14,244.00 C719.46,247.34 719.20,247.52 714.50,248.00 C709.87,248.47 709.53,248.70 708.90,251.79 C708.05,256.02 705.42,258.92 703.02,258.29 C701.46,257.89 701.04,258.56 700.46,262.41 C700.08,264.95 699.98,268.14 700.25,269.51 C700.51,270.88 700.32,272.00 699.83,272.00 C698.36,272.00 700.97,276.05 705.64,281.04 C708.04,283.61 710.00,286.58 710.00,287.64 C710.00,289.78 713.05,294.10 717.25,297.94 C718.76,299.32 720.00,300.94 720.00,301.55 C720.00,302.16 721.17,303.74 722.60,305.08 C724.02,306.41 725.85,308.78 726.66,310.33 C727.47,311.89 730.47,315.75 733.32,318.90 C736.17,322.05 739.50,325.83 740.72,327.29 C742.99,330.01 745.38,330.06 746.39,327.41 ZM 300.50 321.01 C300.50,317.84 297.53,317.14 296.02,319.96 C294.61,322.60 295.57,324.20 298.34,323.81 C299.89,323.59 300.50,322.80 300.50,321.01 ZM 305.00 314.00 C305.00,313.45 304.55,313.00 304.00,313.00 C303.45,313.00 303.00,313.45 303.00,314.00 C303.00,314.55 303.45,315.00 304.00,315.00 C304.55,315.00 305.00,314.55 305.00,314.00 ZM 332.23 283.44 C331.79,281.10 331.58,280.99 330.20,282.37 C328.95,283.62 328.90,284.18 329.95,285.44 C331.71,287.56 332.83,286.58 332.23,283.44 ZM 347.71 270.00 C348.00,268.90 348.81,268.00 349.51,268.00 C351.14,268.00 352.23,265.26 350.93,264.46 C349.58,263.62 345.04,268.08 345.02,270.25 C344.99,272.65 347.07,272.46 347.71,270.00 ZM 395.25 189.37 C398.68,188.92 400.01,188.29 400.04,187.12 C400.07,186.23 400.54,182.12 401.08,178.00 C401.63,173.88 402.14,169.92 402.21,169.21 C402.28,168.50 402.93,168.14 403.65,168.42 C404.38,168.70 406.17,167.82 407.63,166.46 C409.10,165.11 410.89,164.00 411.61,164.00 C413.30,164.00 415.32,160.27 414.62,158.45 C414.33,157.69 414.48,156.82 414.96,156.53 C415.44,156.23 416.02,156.55 416.25,157.24 C416.49,157.93 417.00,155.69 417.39,152.25 C418.08,146.16 418.17,146.00 421.05,146.00 C422.67,146.00 424.00,145.59 424.00,145.09 C424.00,144.59 425.27,144.37 426.82,144.62 C428.74,144.92 430.18,144.45 431.36,143.15 C434.08,140.15 431.37,138.15 424.69,138.21 C421.75,138.24 418.31,137.70 417.03,137.01 C413.31,135.02 362.60,136.77 332.00,139.95 C313.83,141.83 285.44,145.91 276.00,147.99 C265.41,150.33 258.98,151.72 254.50,152.63 C246.11,154.34 223.46,161.12 221.22,162.59 C218.81,164.17 218.76,164.35 220.45,165.59 C223.58,167.88 239.05,173.03 250.47,175.60 C256.54,176.96 265.55,178.98 270.50,180.08 C281.76,182.59 296.65,184.91 309.00,186.06 C338.61,188.84 346.18,189.38 352.60,189.18 C356.50,189.05 360.77,189.40 362.10,189.95 C364.52,190.97 386.07,190.59 395.25,189.37 Z" fill="rgb(244,221,101)"/>
<path d="M 0.00 490.00 L 0.00 0.00 L 490.00 0.00 L 980.00 0.00 L 980.00 490.00 L 980.00 980.00 L 490.00 980.00 L 0.00 980.00 L 0.00 490.00 ZM 469.89 796.00 C469.95,777.58 470.43,733.03 470.97,697.00 C471.50,660.97 472.46,586.31 473.09,531.07 C474.14,438.55 474.10,430.55 472.60,429.45 C471.70,428.79 465.91,427.73 459.73,427.08 C437.56,424.76 412.08,421.91 387.50,418.99 C373.75,417.35 358.45,415.55 353.50,414.99 C348.55,414.42 341.12,413.51 337.00,412.98 C332.88,412.44 321.85,411.12 312.50,410.06 C274.63,405.73 259.21,403.88 253.42,402.96 C246.78,401.91 240.00,401.69 240.00,402.53 C240.00,402.97 243.76,410.39 246.84,416.00 C247.29,416.83 248.69,419.52 249.94,422.00 C251.20,424.48 256.05,433.92 260.72,443.00 C265.39,452.08 273.95,468.73 279.75,480.00 C285.54,491.27 292.53,504.77 295.27,510.00 C298.01,515.22 306.10,530.97 313.24,545.00 C320.38,559.03 329.72,577.25 333.99,585.50 C338.26,593.75 348.62,614.00 357.00,630.50 C365.38,647.00 375.51,666.80 379.50,674.50 C392.55,699.68 406.26,726.36 409.80,733.50 C411.72,737.35 414.28,741.85 415.49,743.50 C416.71,745.15 423.82,758.65 431.29,773.50 C438.76,788.35 450.19,811.06 456.68,823.98 L 468.50 847.45 L 469.14 838.48 C469.50,833.54 469.83,814.42 469.89,796.00 ZM 504.30 841.25 C505.09,839.74 509.90,830.62 514.99,821.00 C520.08,811.38 527.84,796.53 532.23,788.00 C536.63,779.47 540.57,772.05 540.98,771.50 C541.39,770.95 545.46,763.30 550.01,754.50 C554.56,745.70 559.97,735.35 562.02,731.50 C567.12,721.95 573.42,709.97 581.49,694.50 C585.22,687.35 590.40,677.45 593.01,672.50 C595.61,667.55 600.33,658.55 603.50,652.50 C606.67,646.45 611.17,637.90 613.50,633.50 C619.31,622.56 627.25,607.37 636.50,589.50 C640.78,581.25 645.84,571.60 647.76,568.06 C649.67,564.53 656.41,551.70 662.72,539.56 C669.03,527.43 675.45,515.25 676.97,512.50 C678.50,509.75 683.01,501.20 687.00,493.50 C699.96,468.49 706.21,456.58 708.49,452.50 C715.53,439.93 730.12,410.79 729.62,410.29 C729.29,409.96 713.16,411.09 693.76,412.79 C674.37,414.49 651.53,416.39 643.00,417.01 C634.47,417.62 620.97,418.77 613.00,419.55 C593.00,421.51 532.96,426.91 519.11,428.00 C512.84,428.49 507.35,429.25 506.92,429.69 C506.48,430.14 505.64,475.73 505.05,531.00 C504.46,586.28 503.53,669.97 502.97,717.00 C501.90,808.63 501.75,844.00 502.43,844.00 C502.66,844.00 503.50,842.76 504.30,841.25 ZM 607.73 732.40 C621.35,715.29 636.10,696.67 640.50,691.02 C650.30,678.42 661.07,664.88 662.46,663.40 C663.03,662.79 666.20,658.80 669.50,654.53 C672.80,650.26 680.22,640.84 686.00,633.59 C701.03,614.74 724.23,585.51 741.55,563.59 C758.87,541.69 781.21,513.52 805.47,483.00 C814.87,471.17 824.80,458.58 827.53,455.00 C830.26,451.42 832.75,448.27 833.05,448.00 C833.81,447.32 844.61,433.86 849.43,427.61 C853.51,422.31 876.76,392.99 885.20,382.50 C889.21,377.52 889.72,376.45 888.22,376.21 C887.22,376.05 869.10,380.18 847.95,385.39 C826.80,390.61 800.58,397.04 789.68,399.69 L 769.86 404.50 L 759.13 425.00 C753.23,436.27 744.87,452.25 740.56,460.50 C736.25,468.75 731.66,477.43 730.36,479.78 C729.07,482.14 723.90,492.04 718.87,501.78 C713.85,511.53 709.16,520.43 708.46,521.57 C707.76,522.71 704.16,529.46 700.46,536.57 C696.76,543.68 689.80,556.92 685.00,566.00 C680.20,575.08 672.77,589.25 668.50,597.50 C658.40,617.01 651.61,629.97 641.51,649.00 C633.11,664.84 617.23,695.03 606.00,716.50 C602.55,723.10 598.72,730.30 597.48,732.50 C591.77,742.63 581.16,764.11 582.01,763.82 C582.53,763.65 594.10,749.50 607.73,732.40 ZM 368.71 722.80 C360.72,707.24 350.95,688.20 346.99,680.50 C343.03,672.80 334.60,656.38 328.27,644.00 C316.40,620.83 306.19,601.07 295.72,581.00 C288.31,566.79 274.66,540.06 249.27,490.00 C238.53,468.83 228.73,449.70 227.49,447.50 C226.26,445.30 220.04,433.11 213.67,420.41 C207.30,407.71 201.51,396.85 200.79,396.27 C200.08,395.70 195.90,394.29 191.50,393.15 C187.10,392.00 180.12,390.10 176.00,388.92 C171.88,387.75 165.57,386.11 162.00,385.29 C158.43,384.47 151.45,382.67 146.50,381.30 C141.55,379.94 130.98,377.08 123.00,374.96 C115.03,372.84 104.68,369.98 100.00,368.60 C95.33,367.22 91.19,366.41 90.79,366.81 C90.39,367.21 93.92,372.02 98.63,377.51 C107.47,387.83 113.79,396.31 112.97,396.75 C112.71,396.89 113.66,398.46 115.07,400.25 C119.29,405.59 138.81,431.30 177.53,482.50 C196.71,507.85 204.00,517.41 214.50,530.98 C218.90,536.66 226.21,546.30 230.74,552.41 C235.28,558.51 241.10,566.20 243.69,569.50 C252.44,580.64 256.89,586.45 266.28,599.00 C282.02,620.05 306.82,652.83 316.92,665.96 C322.19,672.81 327.85,680.31 329.50,682.63 C342.00,700.22 382.18,752.16 382.80,751.53 C383.03,751.30 376.69,738.37 368.71,722.80 ZM 553.52 392.98 C566.16,391.87 588.42,389.86 603.00,388.51 C617.58,387.15 644.80,384.70 663.50,383.04 C747.40,375.63 738.61,376.70 736.79,374.11 C734.98,371.54 718.59,351.96 712.00,344.51 C708.97,341.09 705.38,336.79 704.00,334.96 C701.49,331.61 684.42,311.16 656.04,277.50 C647.70,267.60 638.98,257.26 636.68,254.52 C624.21,239.68 620.71,235.93 619.66,236.27 C618.18,236.76 615.52,240.74 603.16,261.00 C597.62,270.08 589.81,282.86 585.79,289.41 C581.78,295.96 577.45,303.16 576.17,305.41 C574.88,307.66 572.80,311.08 571.53,313.00 C570.27,314.92 565.02,323.36 559.87,331.75 C554.72,340.14 549.04,349.37 547.24,352.25 C545.45,355.14 542.12,360.65 539.83,364.50 C537.54,368.35 533.03,375.67 529.81,380.76 C526.58,385.85 523.52,391.14 523.00,392.51 C522.08,394.92 522.18,395.00 526.29,395.00 C528.62,395.00 540.87,394.09 553.52,392.98 ZM 458.00 393.12 C458.00,392.64 454.47,386.46 450.15,379.37 C439.79,362.40 417.92,326.43 415.26,322.00 C414.10,320.08 410.72,314.45 407.75,309.50 C404.78,304.55 398.62,294.42 394.05,287.00 C389.48,279.58 384.96,272.15 384.01,270.50 C377.26,258.84 366.65,241.96 365.45,240.96 C364.25,239.96 362.98,240.87 358.25,246.10 C355.09,249.59 349.30,255.83 345.39,259.97 C341.48,264.11 335.63,270.45 332.39,274.06 C321.82,285.83 291.75,318.47 290.54,319.50 C289.89,320.05 285.16,325.23 280.02,331.00 C274.88,336.77 266.05,346.48 260.39,352.56 C244.52,369.60 243.73,371.00 249.97,371.00 C251.53,371.00 258.15,371.66 264.66,372.46 C271.17,373.27 286.62,375.07 299.00,376.47 C311.38,377.87 339.05,381.02 360.50,383.47 C381.95,385.92 406.02,388.67 414.00,389.58 C421.98,390.49 433.00,391.81 438.50,392.51 C450.65,394.07 458.00,394.30 458.00,393.12 ZM 497.61 372.50 C499.62,369.20 504.30,361.55 508.02,355.50 C515.25,343.73 546.37,293.04 556.52,276.50 C559.89,271.00 563.86,264.60 565.33,262.27 C566.80,259.94 568.00,257.58 568.00,257.02 C568.00,256.46 568.37,256.00 568.81,256.00 C569.26,256.00 570.39,254.40 571.32,252.45 C572.25,250.50 573.48,248.36 574.04,247.70 C576.02,245.39 586.91,226.58 586.51,226.18 C586.29,225.95 575.17,226.36 561.80,227.08 C534.02,228.58 440.27,228.72 415.50,227.30 C406.70,226.80 398.50,226.57 397.28,226.80 C395.15,227.21 395.12,227.33 396.63,230.25 C397.49,231.91 402.20,239.74 407.10,247.65 C411.99,255.57 416.00,262.22 416.00,262.45 C416.00,262.67 417.80,265.57 420.00,268.88 C422.20,272.19 424.00,275.13 424.00,275.42 C424.00,275.70 426.45,279.73 429.45,284.37 C434.67,292.48 452.42,321.26 456.03,327.50 C456.99,329.15 462.15,337.70 467.52,346.50 C472.88,355.30 478.86,365.20 480.80,368.50 C482.73,371.80 485.66,376.47 487.30,378.89 L 490.28 383.27 L 492.12 380.89 C493.13,379.57 495.60,375.80 497.61,372.50 ZM 800.37 364.06 C836.53,355.18 881.31,344.22 890.66,341.95 C902.06,339.18 902.70,338.83 900.88,336.25 C899.24,333.92 890.35,323.56 883.95,316.51 C881.44,313.75 874.49,305.88 868.49,299.00 C862.50,292.12 857.35,286.27 857.05,286.00 C856.75,285.73 853.35,281.90 849.51,277.50 C845.66,273.10 842.29,269.27 842.01,269.00 C841.14,268.15 813.53,236.67 810.94,233.59 C803.76,225.03 786.50,206.00 785.91,206.00 C784.56,206.00 784.03,210.73 784.01,223.00 C783.99,229.88 783.08,251.02 781.98,270.00 C779.24,317.16 777.01,359.63 777.00,364.75 C777.00,368.00 777.38,369.00 778.62,369.00 C779.51,369.00 789.30,366.78 800.37,364.06 ZM 192.43 358.43 C194.27,356.58 194.34,353.90 193.01,336.50 C192.46,329.35 191.53,316.30 190.94,307.50 C190.35,298.70 189.23,282.73 188.45,272.00 C187.67,261.27 186.58,242.40 186.03,230.07 C185.48,217.73 184.67,207.27 184.23,206.83 C183.48,206.08 171.75,218.79 160.14,232.96 C157.20,236.56 152.91,241.52 150.61,244.00 C146.70,248.21 136.70,259.85 127.50,270.90 C122.45,276.96 100.00,302.93 98.00,305.02 C97.18,305.89 94.47,309.01 92.00,311.98 C89.53,314.94 85.37,319.87 82.76,322.93 C78.48,327.96 78.18,328.62 79.70,329.75 C80.62,330.44 82.68,331.00 84.26,331.00 C85.84,331.00 88.03,331.48 89.13,332.07 C90.23,332.66 93.24,333.53 95.82,334.01 C98.39,334.49 102.97,335.62 106.00,336.52 C109.03,337.42 113.75,338.75 116.50,339.46 C119.25,340.18 129.38,343.01 139.00,345.74 C148.62,348.48 163.48,352.62 172.00,354.94 C180.52,357.27 187.95,359.32 188.50,359.51 C190.37,360.13 190.86,360.00 192.43,358.43 ZM 230.09 339.25 C231.97,337.19 238.20,330.33 243.94,324.00 C249.69,317.67 254.64,312.27 254.94,312.00 C255.25,311.73 257.71,309.02 260.42,306.00 C263.13,302.98 268.08,297.58 271.43,294.00 C274.78,290.42 282.24,282.33 288.01,276.00 C293.78,269.68 300.57,262.25 303.11,259.50 C322.73,238.22 336.00,223.41 336.00,222.78 C336.00,221.71 333.89,221.37 309.50,218.53 C281.68,215.30 275.20,214.33 261.00,211.26 C254.68,209.90 246.57,208.18 243.00,207.45 C239.43,206.73 233.80,205.18 230.50,204.02 C221.04,200.68 217.85,199.81 217.25,200.41 C216.95,200.72 217.23,210.54 217.88,222.24 C219.05,243.44 219.69,252.75 222.51,290.37 C223.33,301.30 224.00,315.25 224.01,321.37 C224.02,333.52 224.88,343.00 225.98,343.00 C226.36,343.00 228.21,341.31 230.09,339.25 ZM 746.38 326.75 C746.68,322.76 747.64,305.55 748.50,288.50 C749.36,271.45 750.48,249.62 751.00,240.00 C751.52,230.38 752.22,217.19 752.57,210.71 L 753.20 198.91 L 750.35 199.60 C748.78,199.97 745.25,201.08 742.50,202.06 C729.04,206.84 701.45,212.71 675.00,216.43 C652.72,219.57 651.00,219.90 651.00,221.08 C651.00,221.87 659.11,232.18 666.67,241.00 C667.85,242.38 675.01,250.93 682.58,260.00 C690.16,269.08 697.74,278.11 699.43,280.07 C701.12,282.03 703.40,284.73 704.51,286.07 C712.41,295.64 721.85,306.88 723.68,308.91 C724.88,310.24 730.05,316.40 735.18,322.60 C740.31,328.80 744.80,333.90 745.16,333.94 C745.53,333.97 746.08,330.74 746.38,326.75 ZM 568.50 194.45 C635.36,190.50 675.95,185.54 715.50,176.49 C732.08,172.69 750.00,166.25 750.00,164.09 C750.00,162.99 739.56,158.71 730.50,156.10 C694.37,145.70 648.83,139.27 576.00,134.31 C544.77,132.18 428.87,131.81 399.50,133.74 C355.42,136.64 349.39,137.13 347.50,137.98 C346.40,138.48 340.33,139.34 334.00,139.90 C316.94,141.40 286.82,145.61 276.00,147.99 C265.41,150.33 258.98,151.72 254.50,152.63 C246.11,154.34 223.46,161.12 221.22,162.59 C218.81,164.17 218.76,164.35 220.45,165.59 C223.58,167.88 239.05,173.03 250.47,175.60 C282.02,182.68 279.60,182.24 312.00,186.92 C341.73,191.22 390.31,194.82 440.00,196.40 C462.29,197.11 544.69,195.86 568.50,194.45 Z" fill="rgb(254,254,253)"/>
</g>
</svg>